# xmcd
#
# Track frame offsets: 
#        150
#        11225
#        23844
#        32805
#        43585
#        56005
#        69030
#        82280
#        94110
#        106402
#        117937
#        131570
#        144592
#        153762
#        167637
#        179497
#        192145
#        202684
#        216172
#        226627
#        237762
#        249650
#        259890
#        270495
#        282820
#
# Disc length: 3943 seconds
#
# Revision: 7
# Processed by: cddbd v1.5.2PL0 Copyright (c) Steve Scherf et al.
# Submitted via: ExactAudioCopyFreeDBPlugin 1.0
#
DISCID=560f6519
DTITLE=Various Artist - Get Low Down!:  The Soul of New Orleans '65-'
DTITLE=67
DYEAR=2001
DGENRE=Soul
TTITLE0=Diamond Joe - Hurry Back to Me
TTITLE1=Wallace Johnson - Something to Remember You By
TTITLE2=John Williams and The Tick Tocks - A Little Tighter
TTITLE3=Ray Algere - In My Corner
TTITLE4=Curly Moore - We Remember
TTITLE5=Eldridge Holmes - Beverly
TTITLE6=Betty Harris - Nearer to You
TTITLE7=Willie Harper - Soda Pop
TTITLE8=The Rubaiyats - Tomorrow
TTITLE9=Lee Dorsey - Holy Cow
TTITLE10=Early King - You'll Remember Me
TTITLE11=Bobby Lu Cure - Send My Love to Me
TTITLE12=Lee Calvin - You Got Me
TTITLE13=John Williams and The Tick Tocks - Blues, Tears and Sorrows
TTITLE14=Benny Spellman - Sinner Girl
TTITLE15=Curly Moore - Goodbye
TTITLE16=Willie and Allen - I Don't Need No One
TTITLE17=Raymond Lewis - Smooth Operator
TTITLE18=Wallace Johnson - I'm Grown
TTITLE19=Eldridge Holmes - Until the End
TTITLE20=Diamond Joe - How to Pick a Winner
TTITLE21=Willie Harper - You See Me
TTITLE22=Curly Moore - I Love You
TTITLE23=Art Neville - Too Late
TTITLE24=The Prime Mates - Hot Tamales - Part 2
EXTD=YEAR: 2001
EXTT0=
EXTT1=
EXTT2=
EXTT3=
EXTT4=
EXTT5=
EXTT6=
EXTT7=
EXTT8=
EXTT9=
EXTT10=
EXTT11=
EXTT12=
EXTT13=
EXTT14=
EXTT15=
EXTT16=
EXTT17=
EXTT18=
EXTT19=
EXTT20=
EXTT21=
EXTT22=
EXTT23=
EXTT24=
PLAYORDER=
